<svg width="12px" height="12px" viewBox="0 0 12 12" fill="none"
  xmlns="http://www.w3.org/2000/svg">
  <path d="M0 0H2V1.52778C3.06151 0.577703 4.46329 0 5.99999 0C8.97298 0 11.441 2.16229 11.917 5H9.87397C9.42993 3.27477 7.86383 2 5.99999 2C4.98554 2 4.0593 2.37764 3.35416 3H5V5H0V0Z" fill="currentColor"/>
  <path d="M7 9V7H12V12H10V10.4722C8.93849 11.4223 7.5367 12 5.99999 12C3.02699 12 0.559025 9.83771 0.0829468 7H2.12601C2.57005 8.72523 4.13615 10 5.99999 10C7.01443 10 7.94068 9.62236 8.64581 9H7Z" fill="currentColor"/>
</svg>
